HIERARCHY
ROOT mixamorig:Hips
{
	OFFSET 0.000000 201.639420 0.000000
	CHANNELS 6 Xposition Yposition Zposition Xrotation Yrotation Zrotation
	JOINT mixamorig:Spine
	{
		OFFSET 0.006200 19.524994 -2.481800
		CHANNELS 3 Xrotation Yrotation Zrotation
		JOINT mixamorig:Spine1
		{
			OFFSET -0.000900 22.835007 -2.825400
			CHANNELS 3 Xrotation Yrotation Zrotation
			JOINT mixamorig:Spine2
			{
				OFFSET -0.020600 26.552490 -3.193300
				CHANNELS 3 Xrotation Yrotation Zrotation
				JOINT mixamorig:Neck
				{
					OFFSET -0.060000 30.701813 1.352200
					CHANNELS 3 Xrotation Yrotation Zrotation
					JOINT mixamorig:Head
					{
						OFFSET -0.087200 22.547607 3.670900
						CHANNELS 3 Xrotation Yrotation Zrotation
						JOINT mixamorig:HeadTop_End
						{
							OFFSET -0.830600 40.355194 7.893500
							CHANNELS 3 Xrotation Yrotation Zrotation
							End Site
							{
								OFFSET 0.000000 30.592346 0.000000
							}
						}
						JOINT mixamorig:RightEye
						{
							OFFSET -6.302100 18.118591 16.197100
							CHANNELS 3 Xrotation Yrotation Zrotation
							End Site
							{
								OFFSET 0.000000 30.592346 0.000000
							}
						}
						JOINT mixamorig:LeftEye
						{
							OFFSET 6.741500 18.382690 16.401899
							CHANNELS 3 Xrotation Yrotation Zrotation
							End Site
							{
								OFFSET 0.000000 30.592346 0.000000
							}
						}
					}
				}
				JOINT mixamorig:LeftShoulder
				{
					OFFSET 11.924900 18.230499 1.425400
					CHANNELS 3 Xrotation Yrotation Zrotation
					JOINT mixamorig:LeftArm
					{
						OFFSET 25.435989 -0.697632 -5.229300
						CHANNELS 3 Xrotation Yrotation Zrotation
						JOINT mixamorig:LeftForeArm
						{
							OFFSET 54.684776 0.000000 0.000000
							CHANNELS 3 Xrotation Yrotation Zrotation
							JOINT mixamorig:LeftHand
							{
								OFFSET 55.098175 0.000000 0.000000
								CHANNELS 3 Xrotation Yrotation Zrotation
								JOINT mixamorig:LeftHandMiddle1
								{
									OFFSET 23.369751 0.000000 0.000000
									CHANNELS 3 Xrotation Yrotation Zrotation
									JOINT mixamorig:LeftHandMiddle2
									{
										OFFSET 6.378677 0.000000 0.000000
										CHANNELS 3 Xrotation Yrotation Zrotation
										JOINT mixamorig:LeftHandMiddle3
										{
											OFFSET 6.148331 0.000000 0.000000
											CHANNELS 3 Xrotation Yrotation Zrotation
											JOINT mixamorig:LeftHandMiddle4
											{
												OFFSET 6.582504 0.000000 0.000000
												CHANNELS 3 Xrotation Yrotation Zrotation
												End Site
												{
													OFFSET -1.168900 6.395691 1.028606
												}
											}
										}
									}
								}
								JOINT mixamorig:LeftHandThumb1
								{
									OFFSET 7.235672 -3.848206 5.434273
									CHANNELS 3 Xrotation Yrotation Zrotation
									JOINT mixamorig:LeftHandThumb2
									{
										OFFSET 6.568451 -3.792297 3.792300
										CHANNELS 3 Xrotation Yrotation Zrotation
										JOINT mixamorig:LeftHandThumb3
										{
											OFFSET 6.063080 -3.500519 3.500518
											CHANNELS 3 Xrotation Yrotation Zrotation
											JOINT mixamorig:LeftHandThumb4
											{
												OFFSET 4.793182 -2.767334 2.767349
												CHANNELS 3 Xrotation Yrotation Zrotation
												End Site
												{
													OFFSET 0.101639 6.054260 1.275483
												}
											}
										}
									}
								}
								JOINT mixamorig:LeftHandIndex1
								{
									OFFSET 23.101074 -0.309540 4.992809
									CHANNELS 3 Xrotation Yrotation Zrotation
									JOINT mixamorig:LeftHandIndex2
									{
										OFFSET 6.226883 0.000000 0.000000
										CHANNELS 3 Xrotation Yrotation Zrotation
										JOINT mixamorig:LeftHandIndex3
										{
											OFFSET 6.094330 0.000000 0.000000
											CHANNELS 3 Xrotation Yrotation Zrotation
											JOINT mixamorig:LeftHandIndex4
											{
												OFFSET 5.482605 0.000000 0.000000
												CHANNELS 3 Xrotation Yrotation Zrotation
												End Site
												{
													OFFSET -1.427902 5.233032 0.797164
												}
											}
										}
									}
								}
								JOINT mixamorig:LeftHandRing1
								{
									OFFSET 22.299240 0.021149 -3.964172
									CHANNELS 3 Xrotation Yrotation Zrotation
									JOINT mixamorig:LeftHandRing2
									{
										OFFSET 6.321869 0.000000 0.000000
										CHANNELS 3 Xrotation Yrotation Zrotation
										JOINT mixamorig:LeftHandRing3
										{
											OFFSET 5.899796 0.000000 0.000000
											CHANNELS 3 Xrotation Yrotation Zrotation
											JOINT mixamorig:LeftHandRing4
											{
												OFFSET 6.517899 0.000000 0.000000
												CHANNELS 3 Xrotation Yrotation Zrotation
												End Site
												{
													OFFSET -1.637299 6.232208 0.980890
												}
											}
										}
									}
								}
								JOINT mixamorig:LeftHandPinky1
								{
									OFFSET 20.463791 -0.302338 -8.562233
									CHANNELS 3 Xrotation Yrotation Zrotation
									JOINT mixamorig:LeftHandPinky2
									{
										OFFSET 6.908646 0.000000 0.000000
										CHANNELS 3 Xrotation Yrotation Zrotation
										JOINT mixamorig:LeftHandPinky3
										{
											OFFSET 4.622849 0.000000 0.000000
											CHANNELS 3 Xrotation Yrotation Zrotation
											JOINT mixamorig:LeftHandPinky4
											{
												OFFSET 5.216080 0.000000 0.000000
												CHANNELS 3 Xrotation Yrotation Zrotation
												End Site
												{
													OFFSET -0.606308 5.116241 0.814926
												}
											}
										}
									}
								}
							}
						}
					}
				}
				JOINT mixamorig:RightShoulder
				{
					OFFSET -12.001300 18.284088 1.348900
					CHANNELS 3 Xrotation Yrotation Zrotation
					JOINT mixamorig:RightArm
					{
						OFFSET -25.308500 -0.751312 -5.164599
						CHANNELS 3 Xrotation Yrotation Zrotation
						JOINT mixamorig:RightForeArm
						{
							OFFSET -54.684429 0.000000 0.000000
							CHANNELS 3 Xrotation Yrotation Zrotation
							JOINT mixamorig:RightHand
							{
								OFFSET -55.150291 0.000000 0.000000
								CHANNELS 3 Xrotation Yrotation Zrotation
								JOINT mixamorig:RightHandMiddle1
								{
									OFFSET -23.317566 0.000000 0.000000
									CHANNELS 3 Xrotation Yrotation Zrotation
									JOINT mixamorig:RightHandMiddle2
									{
										OFFSET -6.378403 0.000000 0.000000
										CHANNELS 3 Xrotation Yrotation Zrotation
										JOINT mixamorig:RightHandMiddle3
										{
											OFFSET -6.148193 0.000000 0.000000
											CHANNELS 3 Xrotation Yrotation Zrotation
											JOINT mixamorig:RightHandMiddle4
											{
												OFFSET -6.583389 0.000000 0.000000
												CHANNELS 3 Xrotation Yrotation Zrotation
												End Site
												{
													OFFSET 1.171692 6.395905 1.029786
												}
											}
										}
									}
								}
								JOINT mixamorig:RightHandThumb1
								{
									OFFSET -7.190521 -3.860474 5.435846
									CHANNELS 3 Xrotation Yrotation Zrotation
									JOINT mixamorig:RightHandThumb2
									{
										OFFSET -6.567429 -3.791718 3.791708
										CHANNELS 3 Xrotation Yrotation Zrotation
										JOINT mixamorig:RightHandThumb3
										{
											OFFSET -6.062469 -3.500153 3.500166
											CHANNELS 3 Xrotation Yrotation Zrotation
											JOINT mixamorig:RightHandThumb4
											{
												OFFSET -4.792618 -2.767029 2.767022
												CHANNELS 3 Xrotation Yrotation Zrotation
												End Site
												{
													OFFSET -0.100327 6.053253 1.276754
												}
											}
										}
									}
								}
								JOINT mixamorig:RightHandIndex1
								{
									OFFSET -23.048981 -0.310791 4.992554
									CHANNELS 3 Xrotation Yrotation Zrotation
									JOINT mixamorig:RightHandIndex2
									{
										OFFSET -6.227539 0.000000 0.000000
										CHANNELS 3 Xrotation Yrotation Zrotation
										JOINT mixamorig:RightHandIndex3
										{
											OFFSET -6.095047 0.000000 0.000000
											CHANNELS 3 Xrotation Yrotation Zrotation
											JOINT mixamorig:RightHandIndex4
											{
												OFFSET -5.484772 0.000000 0.000000
												CHANNELS 3 Xrotation Yrotation Zrotation
												End Site
												{
													OFFSET 1.420593 5.237305 0.797056
												}
											}
										}
									}
								}
								JOINT mixamorig:RightHandRing1
								{
									OFFSET -22.246323 0.020569 -3.963762
									CHANNELS 3 Xrotation Yrotation Zrotation
									JOINT mixamorig:RightHandRing2
									{
										OFFSET -6.322128 0.000000 0.000000
										CHANNELS 3 Xrotation Yrotation Zrotation
										JOINT mixamorig:RightHandRing3
										{
											OFFSET -5.900024 0.000000 0.000000
											CHANNELS 3 Xrotation Yrotation Zrotation
											JOINT mixamorig:RightHandRing4
											{
												OFFSET -6.518356 0.000000 0.000000
												CHANNELS 3 Xrotation Yrotation Zrotation
												End Site
												{
													OFFSET 1.636398 6.232697 0.982186
												}
											}
										}
									}
								}
								JOINT mixamorig:RightHandPinky1
								{
									OFFSET -20.411011 -0.303314 -8.561701
									CHANNELS 3 Xrotation Yrotation Zrotation
									JOINT mixamorig:RightHandPinky2
									{
										OFFSET -6.907349 0.000000 0.000000
										CHANNELS 3 Xrotation Yrotation Zrotation
										JOINT mixamorig:RightHandPinky3
										{
											OFFSET -4.623840 0.000000 0.000000
											CHANNELS 3 Xrotation Yrotation Zrotation
											JOINT mixamorig:RightHandPinky4
											{
												OFFSET -5.218353 0.000000 0.000000
												CHANNELS 3 Xrotation Yrotation Zrotation
												End Site
												{
													OFFSET 0.602097 5.118835 0.816273
												}
											}
										}
									}
								}
							}
						}
					}
				}
			}
		}
	}
	JOINT mixamorig:LeftUpLeg
	{
		OFFSET 18.168400 -13.561905 -0.039000
		CHANNELS 3 Xrotation Yrotation Zrotation
		JOINT mixamorig:LeftLeg
		{
			OFFSET 0.577358 -80.825211 -3.695000
			CHANNELS 3 Xrotation Yrotation Zrotation
			JOINT mixamorig:LeftFoot
			{
				OFFSET -0.577356 -83.370262 -6.520700
				CHANNELS 3 Xrotation Yrotation Zrotation
				JOINT mixamorig:LeftToeBase
				{
					OFFSET 0.750401 -20.798306 25.135401
					CHANNELS 3 Xrotation Yrotation Zrotation
					JOINT mixamorig:LeftToe_End
					{
						OFFSET -0.000500 0.001200 19.917799
						CHANNELS 3 Xrotation Yrotation Zrotation
						End Site
						{
							OFFSET 0.000000 19.917805 0.000000
						}
					}
				}
			}
		}
	}
	JOINT mixamorig:RightUpLeg
	{
		OFFSET -18.162500 -13.585098 -0.041000
		CHANNELS 3 Xrotation Yrotation Zrotation
		JOINT mixamorig:RightLeg
		{
			OFFSET -0.595024 -80.945297 -3.631900
			CHANNELS 3 Xrotation Yrotation Zrotation
			JOINT mixamorig:RightFoot
			{
				OFFSET 0.595024 -83.218193 -6.561200
				CHANNELS 3 Xrotation Yrotation Zrotation
				JOINT mixamorig:RightToeBase
				{
					OFFSET -0.753601 -20.807106 25.115000
					CHANNELS 3 Xrotation Yrotation Zrotation
					JOINT mixamorig:RightToe_End
					{
						OFFSET 0.000299 0.001700 19.918200
						CHANNELS 3 Xrotation Yrotation Zrotation
						End Site
						{
							OFFSET 0.000000 19.918203 0.000000
						}
					}
				}
			}
		}
	}
}
MOTION
Frames: 6
Frame Time: 0.033333
0.677156 81.738937 -3.552252 -4.283628 -8.536118 1.651135 8.011082 0.628446 0.565578 16.018479 1.059922 1.032003 16.018481 1.059921 1.032006 25.349047 -4.076116 -0.324410 0.317156 -23.631018 12.654761 -0.000000 0.000001 -0.000002 -0.000000 0.000001 -0.000002 -0.000000 0.000001 -0.000002 0.407244 -0.142049 4.588539 14.191803 -18.825635 -41.959536 0.071440 -106.409266 0.033485 42.965411 5.178575 23.033987 -0.041318 -0.734082 0.705788 -0.650430 -2.361964 -30.286712 -0.000002 0.000001 -0.000004 0.000002 0.000000 0.000000 -18.470029 -16.736398 -13.036341 0.746966 16.535575 1.160720 0.000008 -0.000001 -0.000011 -0.000001 -0.000001 -0.000002 -5.811066 -1.317631 -0.948778 0.126960 0.452661 -25.166004 -0.000003 0.000005 -0.000003 -0.000000 0.000002 0.000003 0.731468 7.295731 -9.103276 -0.470398 -2.109453 -25.612419 -0.000003 0.000000 -0.000004 -0.000000 0.000001 -0.000003 4.247102 10.000328 -18.666936 -0.087149 -1.256333 -10.507874 -0.000005 0.000007 0.000005 -0.000003 -0.000001 0.000005 0.884661 12.132156 -3.509711 -1.284463 0.636349 62.886754 0.044867 108.694995 -0.017224 50.343036 4.049742 9.201829 -1.622077 -1.785083 17.139345 -0.688864 2.085010 36.015926 0.000005 0.000004 0.000002 0.000002 0.000003 0.000002 -16.093891 13.448256 9.478176 -2.705841 -23.655469 0.231859 -0.000004 -0.000014 -0.000015 -0.000002 -0.000002 0.000004 -7.634683 1.572815 6.832056 0.389913 -1.214698 32.608040 0.000003 -0.000004 -0.000003 0.000002 0.000002 0.000001 2.772146 -6.026625 20.593500 -1.305296 3.612441 35.741666 -0.000003 0.000001 0.000009 -0.000000 -0.000003 0.000001 4.528142 -0.589006 28.330061 -0.911039 4.208594 24.940130 -0.000001 -0.000001 0.000004 0.000001 0.000002 0.000001 -109.133480 -3.652455 22.396832 136.686893 -2.334300 -3.072820 -22.868523 7.801519 6.057857 -0.896220 -0.027620 0.064640 -0.000000 -0.000000 -0.000000 -105.951609 29.619877 -3.710545 152.306853 0.654609 2.732672 2.465404 38.447787 5.971412 -42.449260 0.296679 -4.445196 -0.000000 0.000000 0.000000 
0.623908 81.782074 -3.620759 -4.204363 -8.412007 1.685381 8.019329 0.620185 0.570008 16.034786 1.053491 1.051236 16.034813 1.053491 1.051237 25.315884 -4.126105 -0.327621 0.302322 -23.907453 12.742076 -0.000001 0.000000 0.000001 -0.000001 0.000000 0.000001 -0.000001 0.000000 0.000001 0.404964 -0.111494 4.609015 14.209267 -19.024539 -41.859432 0.071577 -106.418350 0.033614 42.798805 5.314209 23.460650 -0.038141 -0.732315 0.743832 -0.655246 -2.370199 -30.403382 -0.000000 0.000001 -0.000007 -0.000001 0.000002 0.000001 -18.475793 -16.752122 -13.030977 0.744809 16.551949 1.159211 0.000010 0.000002 -0.000011 0.000002 0.000001 -0.000002 -5.830342 -1.379525 -1.137853 0.128367 0.454994 -25.330354 -0.000002 0.000008 0.000001 -0.000001 -0.000001 0.000003 0.742085 7.343582 -9.141117 -0.471961 -2.112684 -25.654747 -0.000003 0.000000 -0.000005 -0.000002 0.000000 0.000003 4.242072 9.980635 -18.675561 -0.087056 -1.255820 -10.503482 -0.000007 0.000011 0.000005 0.000001 0.000001 0.000003 0.873934 12.213706 -3.500678 -1.151798 0.464221 62.805270 0.044765 109.003098 -0.017119 50.292063 3.973667 9.299595 -1.624210 -1.781761 17.198211 -0.690172 2.086717 36.051098 0.000004 -0.000001 0.000001 0.000001 -0.000001 0.000000 -16.114655 13.457967 9.515423 -2.694182 -23.675445 0.234704 -0.000004 -0.000013 -0.000017 0.000002 0.000002 -0.000001 -7.646720 1.599161 6.916405 0.393094 -1.219223 32.753745 0.000000 -0.000003 -0.000004 -0.000002 -0.000004 -0.000000 2.773256 -6.015127 20.658647 -1.305283 3.612452 35.741663 -0.000001 0.000003 0.000008 0.000000 -0.000000 0.000000 4.518345 -0.570918 28.330851 -0.911031 4.208611 24.940128 0.000001 -0.000004 0.000005 -0.000001 -0.000003 0.000001 -109.148977 -3.623631 22.278371 136.604849 -2.371039 -3.076432 -22.984001 7.812203 5.976396 -0.804461 -0.027469 0.064431 -0.000000 0.000001 0.000000 -106.024917 29.572592 -3.801529 152.298042 0.654151 2.733074 2.538654 38.431845 5.958812 -42.416195 0.298278 -4.455639 0.000000 0.000000 0.000001 
0.527112 81.844391 -3.712426 -4.094250 -8.308460 1.703988 8.020662 0.609618 0.574643 16.037346 1.041376 1.069163 16.037352 1.041372 1.069167 25.263480 -4.180139 -0.349880 0.328610 -24.182104 12.848876 -0.000002 0.000000 0.000001 -0.000002 0.000000 0.000001 -0.000002 0.000000 0.000001 0.402560 -0.082651 4.636536 14.305148 -19.284173 -41.676281 0.070768 -106.448840 0.032997 42.713841 5.647258 24.095143 -0.038705 -0.766979 0.737870 -0.656665 -2.372630 -30.437608 0.000001 -0.000004 0.000001 -0.000000 0.000002 0.000001 -18.487428 -16.764648 -13.041312 0.749541 16.515937 1.162550 0.000011 -0.000004 -0.000010 0.000003 0.000001 -0.000001 -5.832356 -1.314810 -1.175895 0.129720 0.457264 -25.489994 -0.000005 0.000003 -0.000001 -0.000000 -0.000002 0.000003 0.751416 7.380157 -9.185794 -0.471312 -2.111308 -25.636787 -0.000002 0.000001 0.000002 0.000000 0.000001 0.000003 4.213159 9.906741 -18.642325 -0.087061 -1.255853 -10.503864 -0.000005 0.000007 0.000002 -0.000001 0.000001 -0.000002 0.874009 12.246557 -3.521483 -1.024428 0.444365 62.705713 0.044270 109.262277 -0.016636 50.240983 3.830746 9.344804 -1.626224 -1.773632 17.204169 -0.689953 2.086406 36.045651 0.000004 -0.000002 0.000002 0.000001 0.000000 0.000002 -16.122916 13.473596 9.514269 -2.659935 -23.743437 0.244011 -0.000001 -0.000012 -0.000013 0.000001 -0.000002 -0.000000 -7.637397 1.581740 6.847577 0.396120 -1.223492 32.891824 0.000001 -0.000004 -0.000002 0.000001 -0.000001 0.000000 2.769072 -6.000302 20.675645 -1.305293 3.612467 35.741676 0.000000 0.000004 0.000008 0.000000 -0.000001 -0.000001 4.518028 -0.569198 28.353807 -0.911039 4.208591 24.940091 0.000001 -0.000004 0.000005 -0.000002 0.000001 -0.000002 -109.164325 -3.651457 22.173895 136.497519 -2.421651 -3.081458 -23.126759 7.833851 5.876487 -0.689463 -0.027303 0.064180 -0.000000 0.000002 0.000000 -106.147219 29.404121 -3.872297 152.292578 0.668730 2.734410 2.601301 38.386350 5.894421 -42.335462 0.297897 -4.451673 -0.000000 0.000000 -0.000000 
0.443780 81.907181 -3.771182 -3.978856 -8.277747 1.708993 8.016307 0.599740 0.577320 16.028620 1.026009 1.078809 16.028612 1.026009 1.078811 25.207727 -4.230699 -0.416605 0.386450 -24.391046 12.933620 -0.000001 -0.000003 0.000001 -0.000001 -0.000003 0.000001 -0.000001 -0.000003 0.000001 0.401922 -0.076913 4.647792 14.513334 -19.498436 -41.379854 0.069099 -106.578333 0.031546 42.673878 6.097780 24.688301 -0.047090 -0.735004 0.636732 -0.658607 -2.375918 -30.484504 -0.000003 -0.000003 -0.000002 -0.000001 -0.000002 0.000006 -18.486175 -16.779410 -13.022446 0.734868 16.627604 1.152186 0.000009 -0.000000 -0.000007 0.000003 0.000004 0.000004 -5.835523 -1.317161 -1.208879 0.130264 0.458185 -25.553068 0.000001 0.000001 -0.000004 -0.000002 -0.000000 0.000003 0.748936 7.342053 -9.238201 -0.471178 -2.111035 -25.633184 -0.000003 -0.000002 0.000001 -0.000003 -0.000000 0.000003 4.189641 9.818277 -18.675873 -0.087635 -1.258857 -10.529819 -0.000005 0.000007 0.000005 0.000000 -0.000001 -0.000000 0.886668 12.217118 -3.573745 -0.913209 0.578481 62.609195 0.043421 109.431898 -0.015832 50.197215 3.657863 9.321788 -1.620143 -1.796131 17.304257 -0.689450 2.085638 36.031307 0.000003 0.000004 0.000002 -0.000001 0.000001 -0.000001 -16.100610 13.440953 9.504393 -2.600281 -23.892823 0.263557 -0.000002 -0.000010 -0.000014 0.000000 0.000001 0.000001 -7.642233 1.597302 6.875777 0.395867 -1.223141 32.879947 -0.000002 -0.000005 -0.000004 0.000001 -0.000002 -0.000002 2.771069 -5.993986 20.728174 -1.305307 3.612449 35.741693 0.000000 0.000002 0.000009 -0.000002 0.000000 0.000000 4.517301 -0.568107 28.348972 -0.911027 4.208585 24.940116 0.000002 -0.000003 0.000003 0.000001 -0.000001 0.000000 -109.189153 -3.701020 22.114363 136.409765 -2.462639 -3.085589 -23.233611 7.887528 5.817467 -0.601430 -0.027146 0.063979 -0.000000 -0.000002 0.000000 -106.261167 29.218945 -3.918578 152.292045 0.688247 2.735883 2.591733 38.338306 5.824246 -42.210214 0.295626 -4.436592 -0.000000 -0.000000 -0.000000 
0.412286 81.964767 -3.764824 -3.891078 -8.340481 1.723815 8.012589 0.593927 0.572245 16.021254 1.013767 1.069404 16.021250 1.013765 1.069405 25.161949 -4.272170 -0.519501 0.404342 -24.517224 12.949676 -0.000002 0.000001 0.000000 -0.000002 0.000001 0.000000 -0.000002 0.000001 0.000000 0.402865 -0.093587 4.646473 14.766101 -19.598821 -41.001704 0.067068 -106.813299 0.029857 42.515506 6.410561 24.970415 -0.050320 -0.778042 0.600183 -0.657479 -2.373998 -30.457289 0.000003 -0.000002 -0.000001 -0.000002 -0.000002 0.000003 -18.494052 -16.781664 -13.036336 0.728785 16.674109 1.147873 0.000007 0.000005 -0.000006 -0.000001 -0.000002 -0.000000 -5.865699 -1.251312 -1.551278 0.130440 0.458448 -25.572303 -0.000001 0.000005 -0.000002 0.000000 -0.000001 -0.000001 0.751349 7.308402 -9.348225 -0.468815 -2.106130 -25.569093 -0.000000 -0.000001 -0.000007 0.000001 -0.000000 0.000001 4.182629 9.777342 -18.717474 -0.088122 -1.261367 -10.551900 -0.000005 0.000011 0.000006 -0.000001 -0.000000 0.000000 0.896488 12.173404 -3.604802 -0.833514 0.711145 62.533749 0.042482 109.517712 -0.014980 50.113532 3.533128 9.284828 -1.616963 -1.807147 17.386212 -0.688038 2.083690 35.992993 0.000002 0.000001 0.000001 0.000000 0.000001 0.000002 -16.125679 13.474863 9.519256 -2.545405 -23.973404 0.275790 -0.000003 -0.000013 -0.000014 -0.000002 0.000001 -0.000002 -7.643594 1.592699 6.894020 0.396180 -1.223565 32.894362 -0.000001 -0.000003 -0.000004 -0.000002 -0.000002 -0.000004 2.768294 -5.985662 20.733060 -1.305294 3.612476 35.741683 -0.000002 0.000001 0.000005 -0.000001 -0.000000 0.000001 4.548309 -0.628662 28.282509 -0.910851 4.208222 24.937774 -0.000001 -0.000001 0.000003 0.000001 -0.000000 0.000001 -109.216159 -3.735360 22.096676 136.366626 -2.467115 -3.086346 -23.218950 7.970302 5.802612 -0.596786 -0.027149 0.063970 -0.000000 0.000003 -0.000000 -106.322147 29.113282 -3.949079 152.295665 0.698960 2.736591 2.516815 38.292346 5.765123 -42.057525 0.293349 -4.425525 0.000000 0.000000 0.000000 
0.412125 82.033600 -3.720414 -3.839686 -8.458702 1.760402 8.013924 0.593217 0.559427 16.024073 1.009913 1.043622 16.024059 1.009912 1.043618 25.131211 -4.303188 -0.619701 0.345501 -24.592281 12.897387 0.000003 -0.000001 -0.000003 0.000003 -0.000001 -0.000003 0.000003 -0.000001 -0.000003 0.402446 -0.100000 4.673973 14.942135 -19.666932 -40.641227 0.065414 -107.028873 0.028470 42.178177 6.440245 24.909526 -0.055423 -0.794000 0.540464 -0.659444 -2.377328 -30.504543 -0.000004 -0.000001 0.000005 0.000001 -0.000001 0.000003 -18.445522 -16.703798 -13.021391 0.714477 16.783619 1.137723 0.000009 0.000001 -0.000010 0.000001 -0.000001 -0.000002 -5.861507 -1.147208 -1.541080 0.130545 0.458636 -25.584675 0.000001 0.000002 -0.000000 0.000001 0.000001 0.000001 0.742435 7.242328 -9.379196 -0.471066 -2.110808 -25.630297 -0.000005 0.000001 -0.000003 -0.000002 0.000001 0.000003 4.168595 9.711652 -18.766510 -0.089341 -1.267626 -10.606424 -0.000004 0.000009 0.000003 0.000000 0.000002 0.000002 0.887055 12.178264 -3.563629 -0.790607 0.710231 62.455858 0.041563 109.537028 -0.014251 49.926429 3.479059 9.276819 -1.630215 -1.772971 17.557109 -0.685864 2.080700 35.932816 0.000004 -0.000000 0.000002 -0.000001 -0.000000 0.000002 -16.100878 13.418153 9.536034 -2.466969 -24.161140 0.300928 -0.000003 -0.000013 -0.000015 0.000004 -0.000001 0.000001 -7.653144 1.623253 6.949350 0.397790 -1.225838 32.967660 -0.000000 -0.000002 -0.000004 -0.000000 -0.000002 0.000001 2.767527 -5.965880 20.813939 -1.305299 3.612478 35.741888 -0.000000 -0.000000 0.000009 -0.000002 -0.000005 0.000003 4.527857 -0.587424 28.351431 -0.919484 4.226412 25.054570 0.000003 -0.000005 0.000003 -0.000001 0.000002 -0.000001 -109.220906 -3.753225 22.081080 136.344755 -2.437261 -3.084027 -23.086108 8.074175 5.781485 -0.684409 -0.027289 0.064165 0.000000 0.000000 -0.000000 -106.335554 29.063818 -3.969669 152.301430 0.701809 2.736755 2.428569 38.229798 5.688129 -41.871167 0.292759 -4.431122 0.000000 0.000000 0.000000 
